<svg id="Layer_1" data-name="Layer 1" xmlns="http://www.w3.org/2000/svg" viewBox="0 0 333.78 423.01"><defs><style>.cls-1,.cls-2{fill:#533815;}.cls-2{fill-rule:evenodd;}</style></defs><title>Logo</title><path class="cls-1" d="M152.18,440l1.54,4.36h-0.39a19.32,19.32,0,0,0-14.08-6q-8.42,0-13.61,5a16.19,16.19,0,0,0-5.18,12.1,27.46,27.46,0,0,0,2.31,10.1A21.45,21.45,0,0,0,130,475a19.7,19.7,0,0,0,12.05,3.67,28.27,28.27,0,0,0,9.09-1.5,14.7,14.7,0,0,0,6.64-4l0.36,0.11-2.88,4.42c-4.66,1-7.68,1.6-9.06,1.78a43.4,43.4,0,0,1-5.58.28q-12.94,0-18.52-6a20.36,20.36,0,0,1-5.57-14.35,22.31,22.31,0,0,1,2.86-10.87,20.69,20.69,0,0,1,8.26-8.22A27.39,27.39,0,0,1,146,438a32.68,32.68,0,0,1,4.21,1.3l1.85,0.7,0.11,0.06" transform="translate(-116.57 -56.79)"/><path class="cls-1" d="M170.94,459.06h11.13l-5.56-14Zm11.63,1.15h-12l-6.23,15.56a9.35,9.35,0,0,0-.65,2.07c0,0.62.46,0.93,1.37,0.93v0.39h-6.13v-0.39a3.45,3.45,0,0,0,2.07-.6,7.49,7.49,0,0,0,1.84-3.12l14.93-37.68h0.7l14.7,36.4a16.25,16.25,0,0,0,1.14,2.63,3.67,3.67,0,0,0,3.45,2.37v0.39h-9.62v-0.39q1.32,0,1.32-1a6.83,6.83,0,0,0-.65-2.24,0.81,0.81,0,0,1-.19-0.36,0.62,0.62,0,0,0-.09-0.28Z" transform="translate(-116.57 -56.79)"/><path class="cls-1" d="M199.69,438h11.79v0.42a4,4,0,0,0-2.71.57c-0.52.43-.78,1.57-0.78,3.42v15.8l24.46-18.37a1.33,1.33,0,0,0,.73-0.93c0-.33-0.55-0.5-1.65-0.5V438h8.88v0.42a11.26,11.26,0,0,0-6.54,2.45l-21.31,15.91,21.25,16.16L233.9,473a0.13,0.13,0,0,1,.09.08,0.19,0.19,0,0,0,.1,0,62.67,62.67,0,0,0,6.5,4.41,9,9,0,0,0,4.32,1.27v0.39h-14v-0.39c1.25,0,1.88-.14,1.88-0.42a4,4,0,0,0-1.55-1.54L208,459.11v15.3a8.18,8.18,0,0,0,.38,3.3,2.12,2.12,0,0,0,1,.88,5,5,0,0,0,2.05.18v0.39H199.69v-0.39q2.35,0.11,2.95-.72a6.59,6.59,0,0,0,.6-3.47v-32q0-2.75-.6-3.55c-0.4-.54-1.38-0.76-2.95-0.67V438Z" transform="translate(-116.57 -56.79)"/><path class="cls-1" d="M247.4,438.45V438h25.89v5.67h-0.42a10.54,10.54,0,0,0-1.41-3.71c-0.38-.37-1.32-0.56-2.81-0.56H255.06v18.48h12.61a5,5,0,0,0,2.38-.35,1.21,1.21,0,0,0,.53-1H271v3.88h-0.42a1.44,1.44,0,0,0-.66-1.09A4.4,4.4,0,0,0,268,459H255.06v12.72a11.69,11.69,0,0,0,.53,4.15,2.54,2.54,0,0,0,1.69,1.59,14.47,14.47,0,0,0,3.51.32h7.26a25.48,25.48,0,0,0,4.44-.23,3.3,3.3,0,0,0,1.63-1,6.37,6.37,0,0,0,1-3.12h0.39v5.68H247.4v-0.39a4.67,4.67,0,0,0,2.17-.54c0.5-.31.74-1.11,0.74-2.39V442.56a9.14,9.14,0,0,0-.39-3.19c-0.26-.61-1.1-0.93-2.52-0.93" transform="translate(-116.57 -56.79)"/><path class="cls-1" d="M327.49,436.55l-2,5h-0.39a5.1,5.1,0,0,0,.11-1.2,0.8,0.8,0,0,0-.47-0.83,4.47,4.47,0,0,0-1.47-.18H312.56v35.26a8.57,8.57,0,0,0,.35,3,1.71,1.71,0,0,0,1,1,6.34,6.34,0,0,0,1.94.21v0.39H304.65v-0.39c1.4-.1,2.28-0.36,2.63-0.81a5,5,0,0,0,.52-2.8V439.32H297.49a7.42,7.42,0,0,0-2,.18,0.86,0.86,0,0,0-.47.91,4.23,4.23,0,0,0,.22,1.13h-0.39l-2-5h0.39a2.52,2.52,0,0,0,1,1.22,6.76,6.76,0,0,0,2.11.21h27.37a9.46,9.46,0,0,0,2.34-.21,1.71,1.71,0,0,0,1-1.22h0.39Z" transform="translate(-116.57 -56.79)"/><path class="cls-1" d="M335,459.06h11.13l-5.56-14Zm11.63,1.15h-12l-6.23,15.56a9.35,9.35,0,0,0-.65,2.07c0,0.62.46,0.93,1.37,0.93v0.39H323v-0.39a3.45,3.45,0,0,0,2.07-.6,7.49,7.49,0,0,0,1.84-3.12l14.93-37.68h0.7l14.7,36.4a16.25,16.25,0,0,0,1.14,2.63,3.67,3.67,0,0,0,3.45,2.37v0.39h-9.62v-0.39q1.32,0,1.32-1a6.83,6.83,0,0,0-.65-2.24,0.81,0.81,0,0,1-.19-0.36,0.62,0.62,0,0,0-.09-0.28Z" transform="translate(-116.57 -56.79)"/><path class="cls-1" d="M362.83,479.16v-0.39c1.29,0,2.12-.24,2.5-0.73a4.11,4.11,0,0,0,.58-2.49V441.84a5.6,5.6,0,0,0-.45-2.59c-0.31-.53-1.19-0.82-2.69-0.85V438h11v0.42a4.2,4.2,0,0,0-2.16.39,1.89,1.89,0,0,0-.81.92,8.83,8.83,0,0,0-.19,2.4V471q0,3.72,1.78,5.25t6.13,1.52h5q3.64,0,5.32-1.78t1.89-6.74h0.39v9.9H362.83Z" transform="translate(-116.57 -56.79)"/><path class="cls-1" d="M395.39,438.45V438h25.89v5.67h-0.42a10.54,10.54,0,0,0-1.41-3.71c-0.38-.37-1.32-0.56-2.81-0.56H403.06v18.48h12.61a5,5,0,0,0,2.38-.35,1.21,1.21,0,0,0,.53-1H419v3.88h-0.42a1.44,1.44,0,0,0-.66-1.09A4.4,4.4,0,0,0,416,459H403.06v12.72a11.69,11.69,0,0,0,.53,4.15,2.54,2.54,0,0,0,1.69,1.59,14.47,14.47,0,0,0,3.51.32h7.26a25.48,25.48,0,0,0,4.44-.23,3.3,3.3,0,0,0,1.63-1,6.37,6.37,0,0,0,1-3.12h0.39v5.68H395.39v-0.39a4.67,4.67,0,0,0,2.17-.54c0.5-.31.74-1.11,0.74-2.39V442.56a9.15,9.15,0,0,0-.39-3.19c-0.26-.61-1.1-0.93-2.52-0.93" transform="translate(-116.57 -56.79)"/><path class="cls-1" d="M446.17,438.51l2,5.14-0.33.06s-0.52-.56-1.56-1.65a10.68,10.68,0,0,0-8.06-3.38,9.17,9.17,0,0,0-6.7,2.41,7.86,7.86,0,0,0-2.47,5.83,6.86,6.86,0,0,0,1.15,4c0.78,1.13,2.39,2.18,4.86,3.14,4.23,1.42,7.12,2.48,8.67,3.21a13.17,13.17,0,0,1,4.5,3.65,9.86,9.86,0,0,1,2.17,6.59,12.56,12.56,0,0,1-.39,3.21,10.4,10.4,0,0,1-1.26,2.93,12.52,12.52,0,0,1-2.08,2.58,9.66,9.66,0,0,1-2.47,1.77,13.49,13.49,0,0,1-4,.91c-1.81.2-3,.31-3.58,0.31h-11v-12H426q0.06,6,2.8,8.3t8.53,2.35q5.25,0,8-2.48a7.81,7.81,0,0,0,2.73-6,6.58,6.58,0,0,0-1-3.63,8.93,8.93,0,0,0-2.65-2.62,32.08,32.08,0,0,0-6.46-2.76,33.75,33.75,0,0,1-6.64-2.89,9.57,9.57,0,0,1-3.2-3.75,11,11,0,0,1-1.29-5.1,10.85,10.85,0,0,1,3.28-8,11.74,11.74,0,0,1,8.63-3.24,23.3,23.3,0,0,1,4.48.48,23.06,23.06,0,0,1,2.68.61,0.51,0.51,0,0,0,.23.06" transform="translate(-116.57 -56.79)"/><path class="cls-2" d="M183,331.44c6.92-11.08,17-10.7,23.59-2.19l32,93.73-12.09.24-42.59-89.37Z" transform="translate(-116.57 -56.79)"/><path class="cls-2" d="M213.06,330c6-8.72,13.86-10.27,25,.59l19.43,92.64-13.27.12Z" transform="translate(-116.57 -56.79)"/><path class="cls-2" d="M242.76,328.23c7.74-7,15.61-7.12,23.66,2.17l7,92.7-9.89,0Z" transform="translate(-116.57 -56.79)"/><path class="cls-2" d="M271.18,329.52c8.58-9.49,17-8.34,24.25,1.12l-7.28,92.64-9.1-.12-7.87-93.64" transform="translate(-116.57 -56.79)"/><path class="cls-2" d="M301.06,329.23c7.24-8,15.11-8.08,23.13,0l-20.43,93.7-10.21-.23c2.58-31.13,4.93-62.33,7.51-93.46" transform="translate(-116.57 -56.79)"/><path class="cls-2" d="M329.94,329.11c9.33-9.26,17.32-7.65,24.3,1.88l-31.7,91.94-12.92-.12Z" transform="translate(-116.57 -56.79)"/><path class="cls-2" d="M359.47,330.22c9-12,17.23-8.13,25.24,1.53L342,423.33c-4.74-.12-9.24-0.12-14-0.23,10.57-30.92,20.9-62,31.47-92.87" transform="translate(-116.57 -56.79)"/><path class="cls-2" d="M214,177.05c0.79-2.63,6.38-9.5,8.84-10.18,1.49,3.55-3.38,10.34-8.84,10.18m-26.42,43.76c0.2,1.18,0,3-1.56,6.68a40.39,40.39,0,0,0-2.21,9.55c-0.09,1-1.54-.51-2.24-1.18a40.3,40.3,0,0,1-4.28-5.39c-1.05-1.57-.12-1.93,1.2-2,5.27-.16,7.69-2.1,8.9-7.26A1.2,1.2,0,0,1,187.63,220.81Zm2.88-4.23a63.18,63.18,0,0,1,4.56-10.6c0.43-.72.88-1.51,1.39-2.46,1.31-2.45,2.61-5.11,3.88-7.52,0.91-1.72,2.19-3.54,3.1-5.1,0.33-.57.7-1.12,1.06-1.65,1.14-1.66,1.95-1.65,2.31-.31,1.35,4.94,3,10.84-2.62,15.6-2,1.67-6.3,2.19-6.79,7.39-0.08.82,0,1.63-.06,2.28-0.3,2.08-1.67,3.28-3.38,4.52,6.5,0.08,12.05-6.05,14.89-12.35a23.81,23.81,0,0,0,1.55-6.41c0-1.05.1-2.1,0.14-3.15,0-.68-0.07-1.09.47-0.23a6.47,6.47,0,0,1,.69,2.57,53.9,53.9,0,0,1,.55,12.66,41.06,41.06,0,0,1-3.5,14.66,21.57,21.57,0,0,1-6.24,8.09c-4.6,3.62-9.33,5.49-15,4.22a3.15,3.15,0,0,1-1.48-.55c-0.31-.32-0.3-0.84-0.16-1.92C186.69,230,188.93,222.66,190.51,216.57Zm75.8,18.6c-1.93,3.85-4.61,7-7.48,10.34-2.43-1.41-4.15-3.06-8.32-3.14-11.59-.23-13.52,10.12-8.39,15.27l3.12,2.73a53.35,53.35,0,0,1-10.69,7.8c-3.34-2-5.95-5.63-7.09-10.93-2.25-10,2.31-21.51,11-24.51,1.67-.58,1.27-0.23,1,1.38-0.31,2.1-.2,2.77,1.2,4.5,0.3-1.92-.65-2.26.43-4.53,0.88-1.85,2.4-2.82,5-2.48,4.21,0.55,3,3.81,5.44,5.73,3.4,2.69,7.6-4,5.85-5.88-0.82-.89-0.18-1.23.77-1.31a7.3,7.3,0,0,1,1.4.14c1.2,0.16,4.26,2,6.26,3.17C266.59,233.91,266.94,233.91,266.31,235.17Zm-35.64,35.5A108.55,108.55,0,0,1,215,278c-0.6-3.78.49-9.44,3.57-10.89,1.67-.78,2.27.13,1.8-2.25-0.9-4.62-3-5.48-4.24-9.61a14.75,14.75,0,0,1,3.82-14.78,55.49,55.49,0,0,1,7.39-5.86,37.25,37.25,0,0,1,4-1.84c1.3-.52,1.82-0.89.73,0.74-0.91,1.37-2.52,2.91-3.44,4.37a31.49,31.49,0,0,0-4.75,15.82,17.71,17.71,0,0,0,1,7C226.67,265.3,228,266.87,230.66,270.67Zm7.51-1.93c1.66-2.22,6.19-4.91,7.87-6.72,0.57-.61,2.09-2.7,3.33-3.88,5-4.74,8.46,5.41.08,11a10.16,10.16,0,0,1-6.26,2,32.68,32.68,0,0,1-3.66-.43C238.12,270.56,237.07,270.22,238.18,268.74ZM132.73,245.51c-2.15-5-5.56-14.62-6.12-18.65-0.27-1.94-.12-2.48,1.71-2.6,4.77-.32,13.33,1.26,13.35-9.32,0-2.15-.22-4.57-2.41-4.89a1.47,1.47,0,0,1-.78.71,3.38,3.38,0,0,1-4.56-1.92c-0.72-2.17.51-5.36,2.06-6.93s3.12-1.06,4.92-.21c5.72,2.69,6.08,10.21,5.64,3.76-0.33-4.94-3.37-7.4-8.1-7.66l-1.51-.08c0.13-2.75-1.54-2.09.35-2.77,6.32-2.27,8.23-1.6,9.3-.37,1.87,2.14,2.13,5.9,6.08,5.34,2.92-.42,3.78-1.95,5.17-4.89,1-2.16,1.16.7,1.13,1.53a6.16,6.16,0,0,0,1,3.28c1.27,1.71,4.36,2.16,4.24,5.32-0.06,1.67-1.17,2.94-2.65,4.06-2.31,1.34-3.44,1.67-1.18,1.43a7.74,7.74,0,0,0,5-2.44c2.48-2.92,2.47-5.71,1.51-9.15a11.74,11.74,0,0,0-1.35-3.08,13.07,13.07,0,0,0-6.57-5.64c-6.11-2.4-11.71-2.27-18.7.87l-2.48,1.09c4.41-8.84,13.32-13.85,22.76-16,7.6-1.71,15.63-.68,21.27,5.67,3.31,3.73,3.64,12.09,2.15,15.2-2.77,5.79-6.28,3.93-9,4.58,6.48,1.25,9.15,2.05,14.27-3.12,2.81-2.84,3.38-5.91,3.09-11-0.3-5.48-3.51-12.12-17-16.19a23.49,23.49,0,0,1-4.61-1.44c-1.27-.73.13-0.85,0.7-0.89a34.73,34.73,0,0,1,17.47,3.46c4.4,1.73,11.31,5.6,12.81,8.64a9.91,9.91,0,0,1,3,3.91c-0.63,2.51-7.06,12.12-9,16a149.83,149.83,0,0,0-7.58,17.37c-0.69-.69-0.28-0.55-0.91-1.9-2.71-5.75-10.35-6.44-15.19-3.42-9.07,5.67-8.08,20.13-1.42,27.5a15.29,15.29,0,0,0,2,1.85c2.76,2.13,4.36,2.66,7.63,3.59l2,0.56c1.33,0.38,1,.4,1.08,1.89,1.24,16.23,1.65,17.69,7.78,32.17-2.37-.21-10.64-0.58-12.4-1.46a6.19,6.19,0,0,0,1.08-9.45c-1.3-1.43-2.41-1.66-5.68-1.79-4.12-.1-5.19-0.6-6.59-1.47-3.24-2-5-6.82-2.11-9.57a7.69,7.69,0,0,1,3.88-1.88c3.2-.34,4.44,3.29,6,4.64,0.53-3.07-3.09-6-6.5-5.71a7.74,7.74,0,0,0-4.91,2.37c-2.35,2.43-2.44,5.26-1.94,8.43a29.31,29.31,0,0,0,2.35,7.33c-3.55-1.52-9.76-8-11.92-11.42a22.48,22.48,0,0,1-3.09-7.08c5.16,1.48,12.63-2,12.16-7.64s-4.28-12.16-7.26-14.69c-1.37-1.16-1.45-1-2.74.08-0.45.37-.88,0.73-1.3,1.06-1.73,1.35-1.42,1.11-1.86-.79l-0.43-1.88c-0.52-2.52-.5-5.3.65-7.25a5.23,5.23,0,0,1,4.68-2.62c1.77-.13,4.48.05,5.16,2.17,0.37,1.14-.16,1.35-1.17,1.58s-1.83.07-2.52,0.73a2.85,2.85,0,0,0-.52,3.31c1.28,2.27,6.05.43,6.23-3.81,0.2-4.6-4.26-6.08-8.18-5.19C141.93,221,136,242.46,148.6,260c6.43,9,6.26,7,10.57,11.49l0.25,0.27,0.72,0.9C148.53,268.31,137.62,256.8,132.73,245.51Zm72.15,25.36a32.63,32.63,0,0,0,3.15,7.32c0.86,1.49,1.31,1.37-.33,1.68a30,30,0,0,1-5.6.61c-0.37-4.13-.33-6.48,1.2-9.73C204.45,268.29,204.43,269.29,204.88,270.86Zm51.66,26.2c0.51-2.17,2.39-5.18,2.48-8a7.81,7.81,0,0,0-1.73-4.63c-1.57-2.27-3.59-3.36-7.46-2.31l1.54,0.56c4.42,2.15,3.12,7.53,1.48,9.12-4.52,4.36-17.94-3.92-22.18,1.27a11.69,11.69,0,0,0,1.41,9.41,44.84,44.84,0,0,1-22.23-6.11c-2.24-1.31-4.15-1.92-5.07-5-0.36-1-.93-2.72-1.47-4.2-0.67-1.83-3.09-4.77-.61-5.14,0.72-.11,1.42-0.17,2.16-0.3,1.68-.29,3.23-0.63,4.87-0.85,2.56-.34,1-0.3,2.83,1.08a38.31,38.31,0,0,0,5.09,3c3.49,1.65.89,0.7-1.74-3.54-1.1-1.78-1-1.35.84-2a56.76,56.76,0,0,0,14.93-7.58,1.47,1.47,0,0,1,1.33-.42c3.73,1.87,7.83,4.69,12.12,4.45a19.91,19.91,0,0,0,8-2.37c8.07-4.36,13.36-13.7,9.17-22.78-1.34-2.89-2.38-3.22-.83-5.33,2.24-3.07,4.57-6.56,7-9.55,1-1.27.71-1.21,1.67-.09,1.1,1.29,2.31,2.43,3.33,3.82A27.76,27.76,0,0,1,278,250.19a57.19,57.19,0,0,1,1.24,10.12c0.26,6.33-.09,11.39-1.79,16.42a37.53,37.53,0,0,1-20.34,21.53C256.16,298.68,256.32,298,256.54,297.07Zm94.28-120c-0.79-2.63-6.38-9.5-8.84-10.18C340.5,170.42,345.37,177.22,350.82,177.05Zm26.42,43.76c-0.2,1.18,0,3,1.56,6.68A40.38,40.38,0,0,1,381,237c0.09,1,1.54-.51,2.24-1.18a40.3,40.3,0,0,0,4.28-5.39c1.05-1.57.12-1.93-1.2-2-5.27-.16-7.69-2.1-8.9-7.26A1.2,1.2,0,0,0,377.24,220.81Zm-2.88-4.23A63.18,63.18,0,0,0,369.8,206c-0.43-.72-0.88-1.51-1.39-2.46-1.31-2.45-2.61-5.11-3.88-7.52-0.91-1.72-2.19-3.54-3.1-5.1-0.33-.57-0.7-1.12-1.06-1.65-1.14-1.66-1.95-1.65-2.31-.31-1.35,4.94-3,10.84,2.62,15.6,2,1.67,6.3,2.19,6.79,7.39,0.08,0.82,0,1.63.06,2.28,0.3,2.08,1.67,3.28,3.38,4.52-6.5.08-12.05-6.05-14.89-12.35a23.79,23.79,0,0,1-1.55-6.41c0-1.05-.1-2.1-0.14-3.15,0-.68.07-1.09-0.47-0.23a6.47,6.47,0,0,0-.69,2.57,53.92,53.92,0,0,0-.55,12.66,41.07,41.07,0,0,0,3.5,14.66,21.57,21.57,0,0,0,6.24,8.09c4.6,3.62,9.33,5.49,15,4.22a3.15,3.15,0,0,0,1.48-.55c0.31-.32.3-0.84,0.16-1.92C378.18,230,375.93,222.66,374.36,216.57Zm-75.8,18.6c1.93,3.85,4.61,7,7.48,10.34,2.43-1.41,4.15-3.06,8.32-3.14,11.59-.23,13.52,10.12,8.39,15.27l-3.12,2.73a53.34,53.34,0,0,0,10.69,7.8c3.34-2,5.95-5.63,7.09-10.93,2.25-10-2.31-21.51-11-24.51-1.67-.58-1.27-0.23-1,1.38,0.31,2.1.2,2.77-1.2,4.5-0.3-1.92.65-2.26-.43-4.53-0.88-1.85-2.4-2.82-5-2.48-4.21.55-3,3.81-5.44,5.73-3.4,2.69-7.6-4-5.85-5.88,0.82-.89.18-1.23-0.77-1.31a7.3,7.3,0,0,0-1.4.14c-1.2.16-4.26,2-6.26,3.17C298.28,233.91,297.92,233.91,298.56,235.17Zm35.64,35.5A108.55,108.55,0,0,0,349.89,278c0.6-3.78-.49-9.44-3.57-10.89-1.67-.78-2.27.13-1.8-2.25,0.9-4.62,3-5.48,4.24-9.61a14.75,14.75,0,0,0-3.82-14.78,55.51,55.51,0,0,0-7.39-5.86,37.25,37.25,0,0,0-4-1.84c-1.3-.52-1.82-0.89-0.73.74,0.91,1.37,2.52,2.91,3.44,4.37A31.49,31.49,0,0,1,341,253.74a17.71,17.71,0,0,1-1,7C338.19,265.3,336.88,266.87,334.2,270.67Zm-7.51-1.93c-1.66-2.22-6.19-4.91-7.87-6.72-0.57-.61-2.09-2.7-3.33-3.88-5-4.74-8.46,5.41-.08,11a10.16,10.16,0,0,0,6.26,2,32.68,32.68,0,0,0,3.66-.43C326.75,270.56,327.8,270.22,326.69,268.74Zm105.45-23.23c2.15-5,5.56-14.62,6.12-18.65,0.27-1.94.12-2.48-1.71-2.6-4.77-.32-13.33,1.26-13.35-9.32,0-2.15.22-4.57,2.41-4.89a1.47,1.47,0,0,0,.78.71,3.38,3.38,0,0,0,4.56-1.92c0.72-2.17-.51-5.36-2.06-6.93s-3.12-1.06-4.92-.21c-5.72,2.69-6.08,10.21-5.64,3.76,0.33-4.94,3.37-7.4,8.1-7.66l1.51-.08c-0.13-2.75,1.54-2.09-.35-2.77-6.32-2.27-8.23-1.6-9.3-.37-1.87,2.14-2.13,5.9-6.08,5.34-2.92-.42-3.78-1.95-5.17-4.89-1-2.16-1.16.7-1.13,1.53a6.15,6.15,0,0,1-1,3.28c-1.27,1.71-4.36,2.16-4.24,5.32,0.06,1.67,1.17,2.94,2.65,4.06,2.31,1.34,3.44,1.67,1.18,1.43a7.74,7.74,0,0,1-5-2.44c-2.48-2.92-2.47-5.71-1.51-9.15a11.75,11.75,0,0,1,1.35-3.08,13.07,13.07,0,0,1,6.57-5.64c6.11-2.4,11.71-2.27,18.7.87l2.48,1.09c-4.41-8.84-13.32-13.85-22.76-16-7.6-1.71-15.63-.68-21.27,5.67-3.31,3.73-3.64,12.09-2.15,15.2,2.77,5.79,6.28,3.93,9,4.58-6.48,1.25-9.15,2.05-14.27-3.12-2.81-2.84-3.38-5.91-3.09-11,0.3-5.48,3.51-12.12,17-16.19a23.48,23.48,0,0,0,4.61-1.44c1.27-.73-0.13-0.85-0.7-0.89a34.73,34.73,0,0,0-17.47,3.46c-4.4,1.73-11.31,5.6-12.81,8.64a9.91,9.91,0,0,0-3,3.91c0.63,2.51,7.06,12.12,9,16a149.81,149.81,0,0,1,7.58,17.37c0.69-.69.28-0.55,0.91-1.9,2.71-5.75,10.35-6.44,15.19-3.42,9.07,5.67,8.08,20.13,1.42,27.5a15.28,15.28,0,0,1-2,1.85c-2.76,2.13-4.35,2.66-7.63,3.59l-2,.56c-1.33.38-1,.4-1.08,1.89-1.24,16.23-1.65,17.69-7.78,32.17,2.37-.21,10.64-0.58,12.4-1.46a6.19,6.19,0,0,1-1.08-9.45c1.3-1.43,2.41-1.66,5.68-1.79,4.12-.1,5.19-0.6,6.59-1.47,3.24-2,5-6.82,2.11-9.57a7.69,7.69,0,0,0-3.88-1.88c-3.2-.34-4.44,3.29-6,4.64-0.53-3.07,3.09-6,6.5-5.71a7.74,7.74,0,0,1,4.91,2.37c2.35,2.43,2.44,5.26,1.94,8.43a29.31,29.31,0,0,1-2.35,7.33c3.55-1.52,9.76-8,11.92-11.42a22.48,22.48,0,0,0,3.09-7.08c-5.16,1.48-12.63-2-12.16-7.64s4.28-12.16,7.26-14.69c1.37-1.16,1.45-1,2.74.08,0.45,0.37.88,0.73,1.3,1.06,1.73,1.35,1.42,1.11,1.86-.79l0.43-1.88c0.52-2.52.5-5.3-.65-7.25a5.23,5.23,0,0,0-4.68-2.62c-1.77-.13-4.48.05-5.16,2.17-0.37,1.14.16,1.35,1.17,1.58s1.83,0.07,2.52.73a2.85,2.85,0,0,1,.52,3.31c-1.28,2.27-6.05.43-6.23-3.81-0.2-4.6,4.26-6.08,8.18-5.19,10.16,2.29,16.07,23.77,3.49,41.29-6.43,9-6.26,7-10.57,11.49l-0.25.27-0.72.9C416.34,268.31,427.24,256.8,432.13,245.51ZM360,270.86a32.63,32.63,0,0,1-3.15,7.32c-0.86,1.49-1.31,1.37.33,1.68a30,30,0,0,0,5.6.61c0.37-4.13.33-6.48-1.2-9.73C360.41,268.29,360.43,269.29,360,270.86Zm-51.66,26.2c-0.51-2.17-2.39-5.18-2.48-8a7.81,7.81,0,0,1,1.73-4.63c1.57-2.27,3.59-3.36,7.46-2.31l-1.54.56c-4.42,2.15-3.12,7.53-1.48,9.12,4.52,4.36,17.94-3.92,22.18,1.27a11.69,11.69,0,0,1-1.41,9.41A44.84,44.84,0,0,0,355,296.41c2.24-1.31,4.15-1.92,5.07-5,0.36-1,.93-2.72,1.47-4.2,0.67-1.83,3.09-4.77.61-5.14-0.73-.11-1.42-0.17-2.16-0.3-1.68-.29-3.23-0.63-4.87-0.85-2.56-.34-1-0.3-2.83,1.08a38.33,38.33,0,0,1-5.09,3c-3.49,1.65-.89.7,1.74-3.54,1.1-1.78,1-1.35-.84-2a56.76,56.76,0,0,1-14.93-7.58,1.47,1.47,0,0,0-1.33-.42c-3.73,1.87-7.83,4.69-12.12,4.45a19.9,19.9,0,0,1-8-2.37c-8.07-4.36-13.36-13.7-9.17-22.78,1.34-2.89,2.38-3.22.83-5.33-2.24-3.07-4.57-6.56-7-9.55-1-1.27-.71-1.21-1.67-0.09-1.1,1.29-2.31,2.43-3.33,3.82a27.76,27.76,0,0,0-4.54,10.53,57.19,57.19,0,0,0-1.24,10.12c-0.26,6.33.09,11.39,1.79,16.42a37.53,37.53,0,0,0,20.34,21.53C308.7,298.68,308.55,298,308.32,297.07ZM279,220c-0.74-1.18-1.91-1.51-2.62-.13-0.22.43-.4,0.79-0.55,1.09-0.48,1-2.32,4.92-3.43,7.1-0.08.16-1.35,2.56-2,4.1s-0.46,1,.28,1.65c1.75,1.56,7.4,7.94,8.89,13.27a38.48,38.48,0,0,1,.85,4.5c0.66,5.65,3.4,5.65,4.06,0a38.53,38.53,0,0,1,.85-4.5c1.5-5.32,7.14-11.7,8.89-13.27,0.74-.66.88-0.17,0.28-1.65s-1.9-3.94-2-4.1c-1.11-2.19-3-6.11-3.43-7.1-0.15-.3-0.33-0.66-0.55-1.09-0.71-1.37-1.86-1-2.62.13C283,224.5,281.72,224.43,279,220Zm-66.89,16.16a24.8,24.8,0,0,1-4.94,6.85,32.22,32.22,0,0,1-6.34,5.12c-3.88,2.42-8,4.31-9.67,9.94-0.43,1.35.4,3.4,0.88,4.19,1.05-1.31,1.22-2.59,3.14-2.91a3,3,0,0,1,3.32,1.74c1.78,3.9-5.3,6.74-7.51,3.68-1.54-2.14-1.67-6.19-1-8.32a13.23,13.23,0,0,1,3.16-4.75c3.52-3.29,8.08-5,11.94-8.78,2.57-2.55,5.88-6.92,7.16-10.65,0.4-1.17.63-2.21-1.25-1a7.57,7.57,0,0,0-1.28,1.12c-7.71,8.26-9.22,10.66-21.31,12.81-2.82.5-2.95-.1-3.06,2.64-0.34,8,2.89,25,6.45,28.42,0,1.2-.33,1,0.65,1,0.08,1.52.87,2.27,1.51,3.45l4-.12c6.59-19.81,10.43-39,32.58-50.15a74,74,0,0,1,7.12-2.4c2.05-.69,1.66-0.57,0-1.57-2.13-1.26-4-2.36-5.11-4.16a16.15,16.15,0,0,1-1.78-4.38c-0.18-1.56,0-2.9,1.42-3.86a1.15,1.15,0,0,1,1.39-.22c0.19,0.19-.28.75-0.56,2a3.19,3.19,0,0,0,.06,1.73,6.29,6.29,0,0,0,2.29,2.92c7.76,5.87,12.07-2.43,14.18-3.46a5.67,5.67,0,0,1,6,.12c3.82,2.25,2.62,6.19,1.56,9.43-0.6,1.82-.51,1.6,1.56,2a43.51,43.51,0,0,1,8,2.43c2.3,0.93,1.66,1,3.05-1.53a78.49,78.49,0,0,0,4.75-9.62,6.5,6.5,0,0,0,.6-2.5c-0.11-1-.77-1.17-2,0.07-2,2-6.5,2.89-9.08,1.36-2.1-1.25-1.93-2.82-1.93-4.9,0.33,0.27.68,0.59,1,.86,6.19,5.45,8.66-.39,7.1-9.52-0.62-3.89-.6-6.79,2.85-7.56a9.87,9.87,0,0,1,8.24,2.73c0.38-10.58.37-19.87-1.27-29.73-1.73-10.4,2.23-13.28-.16-22-2.42-11.7-17.84-9.37-6.48,2.36a13.5,13.5,0,0,1,2.56,3.19c1.17,2,2.46,5,1.5,7.18-2.6-.15-4.28-0.6-5.31-0.58-3,.05-0.56,1.79.16,2.43,1.92,1.69-2,1-3,1.06-2.9.13-1.34,0.4,0.83,2.94,2.57,3,7.62,8.55,6.63,17-0.46,4-.42,3.05-3.88,2.11-2-.54-1.58-0.36-3,1-4,3.8-9.32,6.22-14.37,2.83-3.29-2.21-2.58-7.58-.7-10.57,0.65,2,0,4,1,5.69,1.8,3,8.65,3.47,9.8-6.49,1-8.79-2.84-14-5.24-20.56-3.09-8.54-.32-15,5.24-18.18,5-2.81,13.51-.58,16.37,5.09a9.35,9.35,0,0,1,.39.87,9.28,9.28,0,0,1,.39-0.87c2.86-5.67,11.37-7.9,16.37-5.09,5.56,3.15,8.34,9.64,5.24,18.18-2.39,6.6-6.25,11.77-5.24,20.56,1.14,10,8,9.52,9.8,6.49,1-1.68.37-3.71,1-5.69,1.88,3,2.59,8.36-.7,10.57-5,3.39-10.39,1-14.37-2.83-1.41-1.35-1-1.53-3-1-3.46.94-3.42,1.84-3.88-2.11-1-8.46,4.06-14,6.63-17,2.17-2.54,3.73-2.81.83-2.94-1,0-4.9.62-3-1.06,0.72-.63,3.17-2.37.16-2.43-1,0-2.7.43-5.31,0.58-1-2.21.33-5.21,1.5-7.18a13.5,13.5,0,0,1,2.56-3.19c11.35-11.73-4.06-14.06-6.48-2.36-2.39,8.72,1.57,11.61-.16,22-1.64,9.86-1.66,19.15-1.27,29.73a9.87,9.87,0,0,1,8.24-2.73c3.44,0.77,3.46,3.67,2.85,7.56-1.56,9.13.91,15,7.1,9.52,0.33-.27.68-0.59,1-0.86,0,2.07.17,3.65-1.93,4.9-2.58,1.53-7,.68-9.08-1.36-1.24-1.24-1.9-1.08-2-.07a6.49,6.49,0,0,0,.6,2.5,78.52,78.52,0,0,0,4.75,9.62c1.39,2.48.75,2.45,3.05,1.53a43.51,43.51,0,0,1,8-2.43c2.08-.4,2.16-0.18,1.56-2-1.07-3.24-2.26-7.18,1.56-9.43a5.67,5.67,0,0,1,6-.12c2.11,1,6.42,9.33,14.18,3.46a6.29,6.29,0,0,0,2.29-2.92,3.19,3.19,0,0,0,.06-1.73c-0.28-1.21-.75-1.78-0.56-2a1.15,1.15,0,0,1,1.39.22c1.37,1,1.6,2.29,1.42,3.86a16.14,16.14,0,0,1-1.78,4.38c-1.07,1.8-3,2.9-5.11,4.16-1.69,1-2.09.88,0,1.57a74,74,0,0,1,7.12,2.4c22.15,11.15,26,30.34,32.58,50.15l4,0.12c0.64-1.18,1.43-1.93,1.51-3.45,1,0.06.61,0.23,0.65-1,3.57-3.37,6.79-20.43,6.45-28.42-0.11-2.74-.25-2.14-3.06-2.64-12.09-2.15-13.6-4.55-21.31-12.81a7.57,7.57,0,0,0-1.28-1.12c-1.88-1.21-1.65-.18-1.25,1,1.29,3.73,4.59,8.1,7.16,10.65,3.86,3.83,8.42,5.49,11.94,8.78a13.23,13.23,0,0,1,3.16,4.75c0.71,2.14.58,6.18-1,8.32-2.21,3.07-9.29.22-7.51-3.68a3,3,0,0,1,3.32-1.74c1.92,0.32,2.09,1.61,3.14,2.91,0.49-.78,1.32-2.84.88-4.19-1.71-5.63-5.79-7.52-9.67-9.94a32.23,32.23,0,0,1-6.34-5.12,24.81,24.81,0,0,1-4.94-6.85c-1.47-3.07-1.47-5.35-2.37-8.06-0.31-1-1-1.1-1.56-.51s-0.83,1.7-1.36,2.45c-1.29,1.83-3,2-5.15,1.85-1.54-.11-2.63-0.36-3.4-1.89a8.11,8.11,0,0,1-.75-3.78c0-.85.39-1.57,0.65-0.43a9.87,9.87,0,0,0,1.27,3.24c1.43,2.35,3.71,2.14,4.63-.25a7.58,7.58,0,0,0,.49-3.2c-0.22-3.41-3.46-6.43-3.59-9.67-0.12-3,3.21-4.73,6.6-4.42,0.17-2.68.43-4.83,0.85-7.48,1.45-9.31.8-9.78,6.75-19.62-1.38,0-6.25,5.77-7.48,7-2.49,2.59-4.89,5.19-7.77,7.71-2.58,2.26-10.37,8.56-16,10.72-2.26.87-5.84,1.14-8.27,1.33-4.32.34-9.45-.19-16-5.8-2.37-2-4.13-9.7-2.11-10.51,0.56,0,1,1.69.94,3.71,0,3.15,1.41,5.51,2.65,5.81a12.69,12.69,0,0,0,3.77,0c4.2-.38,6.39.6,9.7,2,2.65,1.12,4.19,1.48,2.69-1-1.79-3-4.49-3.77-4.91-6.16a4.38,4.38,0,0,1,0-1.49c0.4-2.41,4.13-3.06,6.09-3.27,1.58-4.75,5.48-5.48,9.87-4.82,7.1,2,2.84,11.12,6.56,9.17,7.69-4,14-13.2,19.6-18a0.34,0.34,0,0,1,.18-0.18L354,179.32c-0.51-.42-1.77-0.34-3.58-0.33-8.18,0-14.33-8.24-14-14.38,0.12-2.49,1.67-2.83.16-4.1a121,121,0,0,0-10.37-8.13c4.25,8.3,10.25,18.52,5.79,28a9.68,9.68,0,0,1-6.37,5.58c-5.36,1.58-9.45-2.07-8.77-7.36,0.93,3.91,4.3,6.79,8.28,4.49,3.45-2,5.63-13.16,1.61-14.34-1.83-.54-4.51-0.52-4.29,3.86,0.09,1.76-.09,1.25-1,1.09-2.95-.55-4.94-4-5.31-6.9-0.42-3.23.73-5.38,3.67-7a5.53,5.53,0,0,1,5.27-.2,3.12,3.12,0,0,0,.78-3.08,15.63,15.63,0,0,0-3.64-7.2C318,145.1,311.52,139,307.88,135.08c-1.84-2-3.87-4-5.6-6.06-4.86-5.75-5.93-9.1-9.55-14.91-5.87-9.41-5-8.32-8-20.15-0.26-1-.37-2.18-0.55-3.37-1.38-9.07-.34-23,5.29-29.58,3.64-4.28,10.33-5.84,15.25-2.12a10.94,10.94,0,0,1,3,4.06,8.21,8.21,0,0,1,.72,2.51c0.35,2.91.06,5.6-2.36,8a4.93,4.93,0,0,1-3.6,1.51c-3.92.08-6.32-2.49-6.64-6.13-0.1-1.19-.12-2.7.68-3.58,2.95-2.88,5.08-1.49,6.55-.79,1.08,0.52,1.33.48,1.54-.37,0.66-2.56-1.93-4.39-4.22-4.71-3.6-.39-6.2.68-7.66,2.41a21.26,21.26,0,0,0-3.3,4.81,37.24,37.24,0,0,0-3.14,13.17,50.08,50.08,0,0,0,.25,11,43,43,0,0,0,9.62,22.26c1.41,1.65,8.31,8.12,13,7,2-.49-1-4.12,4.29-7.82a7.29,7.29,0,0,1,3.3-.87c3.35-.06,3.91,1.67,6.14,2.18-2.19,1.65-3.06,1.58-3.14,3.4-0.24,5.46,9.84,4,8.61-7.29a10.31,10.31,0,0,0-3.9-7.08l-0.55-.45c1.94-.26,4.66,2.14,6,4.8,1.76,3.41,1.08,10.93-1.46,13.76-6.82,8.12-21,3.57-28.42-1.13-2-1.28-3.47-1.88-1.76,1.14,2.38,4.17,10,12.81,14.44,13.8,4.88,0.84,4.94-3.46,13-.74,6.72,2.28,10.64-3.6,10.5-3.5-1.64,6.76-3.7,10.61-11.32,10.53a40.81,40.81,0,0,1-9.62-1c1.9,1.78,17.25,14.57,21.94,18.44,1.3,1.07.86,1,2.45,0.35,4-1.65,9-3.63,9.52,3.31-2.32-.85-6-0.94-5.56,2.44,0.36,2.9,4.75,4.73,9,10.63,1,1.41.91,2.24,2.56,2.21,6.15-.12,12.63-3.43,17.63-6.86,6.17-4.24,14.14-4.59,22.55-4.67-3.6-3.3-6.21-3.58-11.71-3-6.25.76-12,4-18.67,4.79-2.1.23-4.62,0.08-3.2-2.3,2-3.36,0-2.88-1.2-3.18-1-.24-0.46-1.11-2.38-1.78a7,7,0,0,0-4.46-.15c-0.36.14-1.52,1-.82,0.14a20.32,20.32,0,0,1,4.64-4.32c3.78-2.41,3.89-1.37,7.56-2,0.87-.16,1.28-0.4.87-1.14-0.31-.56-0.48-0.9-0.64-1.14-0.55-.84-2.58-1.68-3.56-2-3.48-1.08-5.49.24-6.85-.77s-0.16-1.37-2.3-.16-5.12,1.86-7.84-.57c-3.78-3.53-1.88-8.2-5.13-10.5-1.58-.94-2.34,0-2.83-1.69,1.67-1,2-2.72,4.15-3.44s3.37-.45,5.53-0.44l-1-2.09c-2.71-7.31-7.7-10.19-.68-18.59,3.14-3.75,2.28-4.6,3.59-5.72,1.33,2.17,2.62,2.07,3.32,5.92,4.21-1.49,8.18-2,11.63-.62,4.72,2,6.79,6.5,6,11.54,0,0.16-.06.33-0.08,0.46-0.92,5.87-7.17,5.2-9.54,2.15-2.77-3.58.69-8.1,5.26-4.83,1,0.75,1.34.47,1.48-.2a7.08,7.08,0,0,0-1.75-5.49c-3.08-3.59-9-2.25-11.72.47-5.29,5.31-4.16,16.42-.33,22.29,9.15,14,32.94,20.16,47.44,26.74,11.9,5.4,21.66,12.25,28.56,20.75,8.26,10.18,11.68,20.13,11.61,37-0.07,17.24-9.21,34.59-22.36,45.48a60.83,60.83,0,0,1-6.33,4.45c-1,.64-3.23,1.88-5,2.71s-6,2.48-4.25,3.54c0.52,0.31,1.24.5,1.85,0.86a9.83,9.83,0,0,1,4.65,5.54c1.14,3.49.5,9.89-3.91,10.61a9.86,9.86,0,0,1-4.36-.56c1.57-.73,2.22-0.46,3.54-1.38a5.3,5.3,0,0,0,2.26-6.11,4.89,4.89,0,0,0-3.24-3c-3.74-.95-6.84,3.2-10.23,4.82-3.57,1.25-7.45-1.06-8.8-3.87a1.39,1.39,0,0,1,.42-1.38,3.09,3.09,0,0,1,1.4-.83c0.41-.11-0.53-1-1.43-1.2a17.25,17.25,0,0,0-2.45.07,51,51,0,0,0-8.06,1.06c-7.18,1.8-2.23,8.39.51,11.88,5.37,7.57,21.47,23.41,30.21,16.89,1.66-1.24,5-5.63,6.34-7.37,1.17-1.47,3.15-4.27,5.24-4.07a2.83,2.83,0,0,1,2.72,2c0.47,1.52,1.47.87,3-.06,1.35-.82,3.87-3.68,2.13-6.87a3.64,3.64,0,0,0-.7-1c-2.37-2.15-2.1-.82-3.35,0a3,3,0,0,1-4.66-1.66c-0.29-1.14.34-2.31,2.52-2.42a12.19,12.19,0,0,1,1.61.06c2.83,0.36,5.41,3.14,6.61,4.93,3.61,5.32.57,13.48-4,17.11a21.53,21.53,0,0,1-8.88,4.22c-6.9,1.58-13.42.07-19.77-2.29-2.84-1.06-2.16-1.66-3.06.6-1.94,4.86-7.33-.73-8.62-3.37-1.54-3.15-1.1-6.62-5.19-10.2-1.49-1.3-1.66-.4-1.66,1.31,0,1.43.59,2.64-.49,5.22a16.15,16.15,0,0,0-1.44,7.24c-2.31-2-6.48-8.07-7.5-10.92-0.43-1.21-.41-1-1.72-1-4.39,0-3.42-1.93-4.39-5.37-0.52-1.85-1.77.24-3.69,1.27-3.1,1.67-13.65,5.66-19.2,6-1.22.07-3-.29-4.1,0.18-0.87.38,1.84,6.48-2.69,7.71a11.22,11.22,0,0,1-5.06.14,26.55,26.55,0,0,1-6.48-3.4c-4.7-3.22-13.93-5.78-17.54,1.1-0.8,1.51-.37,3.31-0.47,5,0,0.43-1.41-3.37-1.78-5.14-1.05-5,3.66-8,7.23-9.28,1.21-.44,1.57-0.31.53-0.88-1.72-.94-4.29-2.52-6.49-4-5.77-4-10.7-9.17-13.05-15.75-0.8-2.25-1.77-5.22-3.09-6.81-1-1.17-1.38-1.18-2.35,0-1.32,1.59-2.29,4.57-3.1,6.82-2.35,6.58-7.28,11.78-13.05,15.75-2.2,1.51-4.77,3.09-6.49,4-1,.57-0.68.45,0.53,0.88,3.57,1.3,8.29,4.28,7.23,9.28-0.37,1.77-1.76,5.56-1.78,5.14-0.1-1.68.32-3.47-.47-5-3.62-6.87-12.85-4.32-17.54-1.1a26.56,26.56,0,0,1-6.48,3.4,11.22,11.22,0,0,1-5.07-.14c-4.53-1.23-1.81-7.33-2.69-7.71-1.06-.47-2.88-0.11-4.1-0.18-5.56-.3-16.11-4.29-19.2-6-1.92-1-3.17-3.12-3.69-1.27-1,3.44,0,5.33-4.39,5.37-1.31,0-1.29-.16-1.72,1-1,2.85-5.19,8.88-7.5,10.92a16.15,16.15,0,0,0-1.44-7.24c-1.09-2.59-.49-3.8-0.49-5.22,0-1.71-.17-2.61-1.66-1.31-4.09,3.57-3.64,7-5.19,10.2-1.29,2.64-6.68,8.23-8.62,3.37-0.9-2.26-.22-1.65-3.06-0.6-6.35,2.36-12.87,3.87-19.77,2.29a21.53,21.53,0,0,1-8.88-4.22c-4.59-3.63-7.63-11.78-4-17.11,1.21-1.78,3.78-4.56,6.61-4.93a12.19,12.19,0,0,1,1.61-.06c2.18,0.1,2.81,1.28,2.52,2.42A3,3,0,0,1,144.7,294c-1.25-.8-1-2.13-3.35,0a3.64,3.64,0,0,0-.7,1c-1.74,3.19.78,6.05,2.13,6.87,1.53,0.93,2.53,1.58,3,.06a2.83,2.83,0,0,1,2.72-2c2.09-.21,4.07,2.6,5.24,4.07,1.3,1.74,4.67,6.13,6.34,7.37,8.74,6.52,24.84-9.33,30.21-16.89,2.73-3.5,7.69-10.08.51-11.88a51,51,0,0,0-8.06-1.06,17.25,17.25,0,0,0-2.45-.07c-0.91.2-1.84,1.09-1.43,1.2a3.09,3.09,0,0,1,1.4.83,1.39,1.39,0,0,1,.42,1.38c-1.35,2.81-5.23,5.13-8.8,3.87-3.4-1.62-6.49-5.77-10.23-4.82a4.89,4.89,0,0,0-3.24,3,5.3,5.3,0,0,0,2.26,6.11c1.31,0.92,2,.65,3.54,1.38a9.86,9.86,0,0,1-4.36.56c-4.4-.73-5-7.12-3.91-10.61a9.83,9.83,0,0,1,4.65-5.54c0.6-.36,1.33-0.55,1.85-0.86,1.79-1.06-2.42-2.66-4.25-3.54s-4-2.07-5-2.71a60.76,60.76,0,0,1-6.33-4.45c-13.14-10.89-22.28-28.23-22.36-45.48-0.07-16.91,3.34-26.86,11.61-37,6.9-8.5,16.66-15.35,28.56-20.75,14.51-6.58,38.3-12.71,47.44-26.74,3.83-5.87,5-17-.33-22.29-2.72-2.72-8.64-4.06-11.72-.47a7.08,7.08,0,0,0-1.75,5.49c0.14,0.66.43,0.94,1.48,0.2,4.57-3.27,8,1.26,5.26,4.83-2.36,3-8.62,3.72-9.54-2.15,0-.13-0.06-0.3-0.08-0.46-0.76-5,1.31-9.59,6-11.54,3.45-1.42,7.42-.87,11.63.62,0.7-3.85,2-3.76,3.32-5.92,1.3,1.12.45,2,3.59,5.72,7,8.4,2,11.28-.68,18.59l-1,2.09c2.17,0,3.52-.24,5.53.44s2.48,2.39,4.15,3.44c-0.48,1.73-1.25.74-2.83,1.69-3.25,2.3-1.35,7-5.13,10.5-2.72,2.43-5.59,1.86-7.84.57s-0.92-.86-2.3.16-3.37-.31-6.85.77c-1,.3-3,1.14-3.56,2-0.16.25-.33,0.58-0.64,1.14-0.41.73,0,1,.87,1.14,3.67,0.67,3.78-.37,7.56,2a20.32,20.32,0,0,1,4.64,4.32c0.69,0.91-.46,0-0.82-0.14a7,7,0,0,0-4.46.15c-1.92.66-1.41,1.54-2.38,1.78-1.22.3-3.21-.18-1.2,3.18,1.42,2.38-1.1,2.53-3.2,2.3-6.65-.74-12.42-4-18.67-4.79-5.5-.55-8.11-0.26-11.71,3,8.41,0.08,16.38.43,22.55,4.67,5,3.43,11.48,6.74,17.63,6.86,1.65,0,1.54-.81,2.56-2.21,4.29-5.89,8.69-7.72,9-10.63,0.41-3.38-3.24-3.29-5.56-2.44,0.55-6.94,5.49-5,9.52-3.31,1.59,0.65,1.15.72,2.45-.35,4.69-3.87,20-16.66,21.94-18.44a40.81,40.81,0,0,1-9.62,1c-7.62.08-9.68-3.77-11.32-10.53-0.13-.1,3.78,5.78,10.5,3.5,8-2.72,8.1,1.58,13,.74,4.43-1,12.06-9.63,14.44-13.8,1.72-3,.28-2.42-1.76-1.14-7.46,4.69-21.6,9.24-28.42,1.13-2.55-2.83-3.22-10.35-1.46-13.76,1.37-2.66,4.09-5.06,6-4.8l-0.55.45a10.31,10.31,0,0,0-3.9,7.08c-1.23,11.29,8.85,12.75,8.61,7.29-0.08-1.83-.95-1.75-3.14-3.4,2.23-.51,2.79-2.24,6.14-2.18a7.3,7.3,0,0,1,3.3.87c5.32,3.7,2.25,7.33,4.29,7.82,4.66,1.11,11.57-5.36,13-7a43,43,0,0,0,9.62-22.26,50.08,50.08,0,0,0,.25-11,37.26,37.26,0,0,0-3.14-13.17,21.27,21.27,0,0,0-3.3-4.81c-1.46-1.73-4.06-2.8-7.66-2.41-2.3.33-4.88,2.16-4.22,4.71,0.22,0.85.46,0.89,1.54,0.37,1.47-.71,3.6-2.1,6.55.79,0.81,0.88.78,2.39,0.68,3.58-0.32,3.64-2.71,6.21-6.64,6.13a4.93,4.93,0,0,1-3.6-1.51c-2.43-2.42-2.71-5.11-2.36-8a8.22,8.22,0,0,1,.72-2.51,10.94,10.94,0,0,1,3-4.06c4.92-3.72,11.61-2.16,15.25,2.12,5.63,6.62,6.67,20.51,5.29,29.58-0.18,1.2-.29,2.37-0.55,3.37-2.92,11.83-2.09,10.74-8,20.15-3.63,5.82-4.7,9.17-9.55,14.91-1.73,2-3.76,4.09-5.6,6.06-3.64,3.89-10.1,10-14.37,14.27a15.63,15.63,0,0,0-3.64,7.2,3.12,3.12,0,0,0,.78,3.08,5.53,5.53,0,0,1,5.27.2c2.94,1.61,4.09,3.75,3.67,7-0.37,2.87-2.36,6.35-5.31,6.9-0.89.16-1.06,0.67-1-1.09,0.22-4.38-2.46-4.4-4.29-3.86-4,1.18-1.84,12.35,1.61,14.34,4,2.3,7.35-.58,8.28-4.49,0.68,5.29-3.41,8.94-8.77,7.36a9.68,9.68,0,0,1-6.37-5.58c-4.46-9.49,1.54-19.71,5.79-28a121,121,0,0,0-10.37,8.13c-1.51,1.27,0,1.61.16,4.1,0.31,6.14-5.85,14.42-14,14.38-1.82,0-3.07-.09-3.58.33l-1.34,1.41a0.34,0.34,0,0,1,.18.18c5.59,4.75,11.91,13.93,19.6,18,3.72,2-.54-7.15,6.56-9.17,4.4-.66,8.29.07,9.87,4.82,2,0.21,5.69.86,6.09,3.27a4.4,4.4,0,0,1,0,1.49c-0.43,2.39-3.12,3.19-4.91,6.16-1.51,2.49,0,2.14,2.69,1,3.31-1.4,5.51-2.38,9.7-2a12.69,12.69,0,0,0,3.77,0c1.24-.3,2.69-2.66,2.65-5.81,0-2,.38-3.7.94-3.71,2,0.81.26,8.49-2.11,10.51-6.55,5.61-11.67,6.14-16,5.8-2.43-.19-6-0.46-8.27-1.33-5.65-2.17-13.44-8.46-16-10.72-2.89-2.53-5.28-5.12-7.77-7.71-1.23-1.27-6.1-7.07-7.48-7,5.95,9.85,5.31,10.31,6.75,19.62,0.41,2.65.68,4.8,0.85,7.48,3.39-.31,6.73,1.37,6.6,4.42-0.13,3.24-3.37,6.26-3.59,9.67a7.58,7.58,0,0,0,.49,3.2c0.92,2.39,3.2,2.6,4.63.25a9.87,9.87,0,0,0,1.27-3.24c0.27-1.14.62-.42,0.65,0.43a8.11,8.11,0,0,1-.75,3.78c-0.77,1.53-1.86,1.78-3.4,1.89-2.2.16-3.87,0-5.15-1.85-0.53-.75-0.85-1.92-1.36-2.45s-1.24-.44-1.56.51C213.53,230.86,213.53,233.13,212.06,236.21Z" transform="translate(-116.57 -56.79)"/></svg>